<?xml version="1.0" encoding="UTF-8"?>
<svg id="Layer_2" data-name="Layer 2" xmlns="http://www.w3.org/2000/svg" viewBox="0 0 128 128">
  <path d="M113.61,72.42c-1.98,6.51-5.24,19.91-7.22,26.41-.68,2.22-2.54,3.88-4.83,4.29-5.92,1.06-17.97,2.88-29.86,3.11-22.65.42-48.89-6.67-55.81-30.77-2.58-8.59-2.35-18.06.95-26.41,13.67-31.97,57.53-31.5,86.04-20.55,2.02.78,3.41,2.47,3.81,4.55l2.35,13.52c.51,2.7-1.74,4.43-4.45,3.96-5.11-.88-10.28-1.64-15.48-1.71-5.01-.07-10.83.38-14.86,3.73-4.7,3.91-5.91,11.74-4.1,17.32,2.65,8.81,9.58,13.31,16.94,9.29,2.79-1.52.34-5.36-.81-7.19-1.53-2.45-1.09-5.77,1.46-7.28,2.52-1.49,5.71-1.46,8.55-1.47,0,0,.07,0,.07,0,3.13-.08,8.66.34,13.18,1.68,3.18.94,5,4.36,4.07,7.54Z"/>
</svg>