<?xml version="1.0" encoding="UTF-8"?>
<svg id="Layer_2" data-name="Layer 2" xmlns="http://www.w3.org/2000/svg" viewBox="0 0 128 128">
  <path d="M64,6.22c-31.91,0-57.78,25.87-57.78,57.78s25.87,57.78,57.78,57.78,57.78-25.87,57.78-57.78S95.91,6.22,64,6.22ZM100.31,70.16c-1.45,4.76-3.84,14.57-5.29,19.33-.5,1.63-1.86,2.84-3.53,3.14-4.33.78-13.15,2.11-21.86,2.27-16.58.31-35.78-4.88-40.85-22.52-1.89-6.28-1.72-13.22.69-19.33,10-23.4,42.11-23.05,62.98-15.04,1.48.57,2.5,1.81,2.79,3.33l1.72,9.9c.37,1.98-1.27,3.24-3.26,2.9-3.74-.65-7.53-1.2-11.33-1.25-3.67-.05-7.93.28-10.87,2.73-3.44,2.86-4.32,8.59-3,12.68,1.94,6.45,7.01,9.74,12.4,6.8,2.04-1.12.25-3.92-.59-5.26-1.12-1.79-.8-4.23,1.07-5.33,1.85-1.09,4.18-1.07,6.26-1.08,0,0,.05,0,.05,0,2.29-.06,6.34.25,9.65,1.23,2.32.69,3.66,3.19,2.98,5.52Z"/>
</svg>